<svg data-v-423bf9ae="" xmlns="http://www.w3.org/2000/svg" viewBox="0 0 261 90" class="iconLeft"><!----><!----><!----><g data-v-423bf9ae="" id="ba19fcb4-afb4-4370-89a7-626fe1e8f9ea" fill="black" transform="matrix(4.979253427292024,0,0,4.979253427292024,76.89816385860348,1.6058075188321297)"><path d="M4.52 12.78C4.97 12.14 5.22 11.49 5.71 8.71C6.16 6.16 6.30 5.15 6.30 4.51C6.30 3.00 5.64 2.69 4.20 2.69C2.98 2.69 2.37 2.91 1.93 3.56C1.48 4.21 1.23 4.83 0.73 7.71C0.29 10.16 0.15 11.20 0.15 11.84C0.15 13.36 0.84 13.65 2.27 13.65C3.47 13.65 4.09 13.44 4.52 12.78ZM3.22 11.03C3.14 11.21 3.00 11.28 2.69 11.28C2.28 11.28 2.23 11.14 2.23 10.85C2.23 10.54 2.30 9.95 2.63 8.11C3.04 5.77 3.15 5.39 3.29 5.12C3.36 4.94 3.50 4.86 3.82 4.86C4.13 4.86 4.27 4.94 4.27 5.22C4.27 5.50 4.21 6.03 3.79 8.40C3.44 10.37 3.35 10.75 3.22 11.03ZM8.18 13.47L8.74 10.28L9.62 10.28C11.33 10.28 11.94 9.28 12.36 6.93C12.57 5.75 12.64 5.14 12.64 4.63C12.64 3.35 12.15 2.87 10.92 2.87L8.06 2.87L6.20 13.47ZM9.11 8.09L9.65 5.08L10.12 5.08C10.40 5.08 10.54 5.15 10.54 5.59C10.54 5.77 10.51 6.02 10.39 6.78C10.23 7.64 10.01 8.09 9.65 8.09ZM16.69 13.47L17.09 11.12L14.87 11.12L15.22 9.11L17.42 9.11L17.79 6.97L15.60 6.97L15.93 5.11L18.17 5.11L18.56 2.87L14.35 2.87L12.49 13.47ZM23.27 13.47L25.13 2.87L23.32 2.87L22.67 6.72L22.58 6.72L21.91 2.87L19.96 2.87L18.10 13.47L19.91 13.47L20.92 7.63L21 7.63L22.25 13.47ZM29.04 14.74L29.06 14.66C28.95 14.42 28.80 14 28.69 12.91C28.97 12.78 29.23 12.61 29.43 12.33C29.88 11.70 30.11 11.09 30.59 8.39C31.01 6.03 31.14 5.05 31.14 4.44C31.14 2.95 30.41 2.69 29.02 2.69C27.80 2.69 27.20 2.90 26.77 3.51C26.32 4.13 26.07 4.75 25.59 7.48C25.19 9.77 25.06 10.75 25.06 11.37C25.06 12.75 25.59 13.08 26.78 13.12C26.92 14.24 26.98 14.56 27.06 14.74ZM28.10 10.74C28.01 10.91 27.87 10.95 27.57 10.95C27.15 10.95 27.10 10.88 27.10 10.54C27.10 10.26 27.17 9.69 27.50 7.83C27.87 5.73 27.99 5.36 28.11 5.11C28.18 4.94 28.32 4.86 28.64 4.86C28.97 4.86 29.11 4.93 29.11 5.26C29.11 5.54 29.02 6.10 28.67 8.09C28.29 10.25 28.21 10.49 28.10 10.74ZM35.98 13.47L36.89 2.87L33.56 2.87L30.67 13.47L32.68 13.47L33.25 11.02L34.20 11.02L33.95 13.47ZM34.50 8.88L33.71 8.88L34.71 5.08L34.85 5.08Z"></path></g><!----><g data-v-423bf9ae="" id="d6fca06b-660a-490b-82a0-20776519a463" transform="matrix(1.0238907672089497,0,0,1.0238907672089497,-22.34573445202765,-6.145733677696192)" stroke="none" fill="black"><path d="M50 6.1c-15.5 0-28.1 11.2-28.1 25v51.4l17 11.4V48.2l-5.3-1.3-2.6-7.1 14.7 3.5v18.9l4 3.1 4.3-3.1V43.4l15.4-3.6-2.7 7.1-6 1.4V94l17.5-11.4V31.1c-.1-13.8-12.7-25-28.2-25z"></path></g><!----></svg>