<svg data-v-423bf9ae="" xmlns="http://www.w3.org/2000/svg" viewBox="0 0 359 105" class="iconLeft"><!----><!----><!----><g data-v-423bf9ae="" id="6c8822a2-b5c8-430d-9953-ea52745d2314" fill="#3E2835" transform="matrix(4.615384615384615,0,0,4.615384615384615,120.89533801720694,3.108114829430221)"><path d="M4.85 14.68L4.85 14.68L4.85 14.68Q4.26 14.68 3.80 14.66L3.80 14.66L3.80 14.66Q3.34 14.63 2.95 14.52L2.95 14.52L2.95 14.52Q2.56 14.42 2.28 14.33L2.28 14.33L2.28 14.33Q2.00 14.24 1.78 13.99L1.78 13.99L1.78 13.99Q1.56 13.74 1.42 13.56L1.42 13.56L1.42 13.56Q1.27 13.38 1.17 12.96L1.17 12.96L1.17 12.96Q1.07 12.54 1.02 12.24L1.02 12.24L1.02 12.24Q0.97 11.94 0.94 11.32L0.94 11.32L0.94 11.32Q0.91 10.70 0.91 10.25L0.91 10.25L0.91 10.25Q0.90 9.81 0.90 8.97L0.90 8.97L0.90 8.97Q0.90 7.96 0.96 7.29L0.96 7.29L0.96 7.29Q1.01 6.62 1.17 6.04L1.17 6.04L1.17 6.04Q1.33 5.47 1.60 5.14L1.60 5.14L1.60 5.14Q1.86 4.81 2.31 4.58L2.31 4.58L2.31 4.58Q2.77 4.34 3.37 4.26L3.37 4.26L3.37 4.26Q3.98 4.17 4.85 4.17L4.85 4.17L4.85 4.17Q5.68 4.17 6.27 4.25L6.27 4.25L6.27 4.25Q6.86 4.33 7.31 4.54L7.31 4.54L7.31 4.54Q7.77 4.75 8.04 5.06L8.04 5.06L8.04 5.06Q8.32 5.37 8.50 5.88L8.50 5.88L8.50 5.88Q8.67 6.38 8.74 7.01L8.74 7.01L8.74 7.01Q8.80 7.64 8.80 8.53L8.80 8.53L8.80 8.53Q8.80 11.06 8.73 11.86L8.73 11.86L8.73 11.86Q8.60 13.23 8.10 13.82L8.10 13.82L8.10 13.82Q7.57 14.44 6.31 14.61L6.31 14.61L6.31 14.61Q5.71 14.68 4.85 14.68ZM5.83 5.25L5.83 5.25L5.83 5.25Q5.44 5.22 4.85 5.22L4.85 5.22L4.85 5.22Q4.27 5.22 3.88 5.25L3.88 5.25L3.88 5.25Q3.49 5.28 3.20 5.37L3.20 5.37L3.20 5.37Q2.91 5.46 2.75 5.56L2.75 5.56L2.75 5.56Q2.59 5.67 2.49 5.90L2.49 5.90L2.49 5.90Q2.39 6.13 2.36 6.37L2.36 6.37L2.36 6.37Q2.33 6.61 2.32 7.02L2.32 7.02L2.32 7.02Q2.30 8.29 2.30 9.56L2.30 9.56L2.30 9.56Q2.30 11.49 2.40 12.20L2.40 12.20L2.40 12.20Q2.56 13.27 3.02 13.43L3.02 13.43L3.02 13.43Q3.36 13.63 4.85 13.63L4.85 13.63L4.85 13.63Q6.34 13.63 6.69 13.43L6.69 13.43L6.69 13.43Q6.82 13.38 6.92 13.28L6.92 13.28L6.92 13.28Q7.03 13.17 7.10 12.98L7.10 12.98L7.10 12.98Q7.17 12.80 7.23 12.61L7.23 12.61L7.23 12.61Q7.28 12.42 7.31 12.13L7.31 12.13L7.31 12.13Q7.35 11.83 7.37 11.60L7.37 11.60L7.37 11.60Q7.39 11.36 7.40 11.00L7.40 11.00L7.40 11.00Q7.40 10.63 7.41 10.39L7.41 10.39L7.41 10.39Q7.41 10.15 7.41 9.75L7.41 9.75L7.41 9.75Q7.41 8.37 7.39 7.02L7.39 7.02L7.39 7.02Q7.38 6.61 7.35 6.37L7.35 6.37L7.35 6.37Q7.31 6.13 7.22 5.90L7.22 5.90L7.22 5.90Q7.12 5.67 6.96 5.56L6.96 5.56L6.96 5.56Q6.80 5.46 6.51 5.37L6.51 5.37L6.51 5.37Q6.22 5.28 5.83 5.25ZM16.91 10.82L16.91 10.82L16.91 10.82Q16.91 11.45 16.88 11.89L16.88 11.89L16.88 11.89Q16.86 12.33 16.79 12.76L16.79 12.76L16.79 12.76Q16.73 13.19 16.60 13.46L16.60 13.46L16.60 13.46Q16.47 13.73 16.27 13.98L16.27 13.98L16.27 13.98Q16.07 14.22 15.78 14.35L15.78 14.35L15.78 14.35Q15.48 14.48 15.09 14.55L15.09 14.55L15.09 14.55Q14.69 14.62 14.16 14.62L14.16 14.62L14.16 14.62Q12.36 14.62 12.10 13.82L12.10 13.82L12.10 17.06L10.75 17.17L10.75 7.02L11.98 7.02L12.11 7.85L12.11 7.85Q12.52 6.81 14.29 6.81L14.29 6.81L14.29 6.81Q14.66 6.81 14.95 6.84L14.95 6.84L14.95 6.84Q15.25 6.87 15.49 6.95L15.49 6.95L15.49 6.95Q15.74 7.03 15.92 7.13L15.92 7.13L15.92 7.13Q16.11 7.23 16.26 7.39L16.26 7.39L16.26 7.39Q16.41 7.56 16.51 7.73L16.51 7.73L16.51 7.73Q16.61 7.90 16.68 8.17L16.68 8.17L16.68 8.17Q16.75 8.43 16.80 8.68L16.80 8.68L16.80 8.68Q16.84 8.93 16.87 9.30L16.87 9.30L16.87 9.30Q16.89 9.67 16.90 10.00L16.90 10.00L16.90 10.00Q16.91 10.34 16.91 10.82ZM15.56 10.38L15.56 10.38L15.56 10.38Q15.54 9.00 15.52 8.56L15.52 8.56L15.52 8.56Q15.49 8.08 15.16 7.92L15.16 7.92L15.16 7.92Q14.83 7.75 13.85 7.75L13.85 7.75L13.85 7.75Q12.61 7.75 12.26 8.15L12.26 8.15L12.26 8.15Q12.07 8.43 12.07 9.78L12.07 9.78L12.07 9.78Q12.07 10.06 12.08 10.60L12.08 10.60L12.08 10.60Q12.09 11.14 12.09 11.38L12.09 11.38L12.09 11.38Q12.09 11.61 12.08 11.99L12.08 11.99L12.08 11.99Q12.06 12.37 12.06 12.51L12.06 12.51L12.06 12.51Q12.06 12.93 12.19 13.17L12.19 13.17L12.19 13.17Q12.33 13.41 12.73 13.55L12.73 13.55L12.73 13.55Q13.13 13.69 13.85 13.69L13.85 13.69L13.85 13.69Q14.85 13.69 15.20 13.52L15.20 13.52L15.20 13.52Q15.57 13.34 15.57 11.68L15.57 11.68L15.57 11.68Q15.57 11.43 15.57 10.99L15.57 10.99L15.57 10.99Q15.56 10.54 15.56 10.38ZM24.68 10.66L24.68 10.66L24.68 10.66Q23.86 10.75 23.67 10.76L23.67 10.76L19.94 10.76L19.94 10.76Q19.95 11.75 20.00 12.93L20.00 12.93L20.00 12.93Q20.03 13.39 20.39 13.54L20.39 13.54L20.39 13.54Q20.75 13.69 21.79 13.69L21.79 13.69L21.79 13.69Q22.18 13.69 22.46 13.65L22.46 13.65L22.46 13.65Q22.74 13.62 22.91 13.55L22.91 13.55L22.91 13.55Q23.08 13.47 23.18 13.40L23.18 13.40L23.18 13.40Q23.28 13.32 23.33 13.17L23.33 13.17L23.33 13.17Q23.38 13.02 23.39 12.91L23.39 12.91L23.39 12.91Q23.41 12.80 23.42 12.59L23.42 12.59L23.42 12.59Q23.43 12.37 23.45 12.24L23.45 12.24L24.50 12.43L24.50 12.43Q24.49 12.91 24.43 13.24L24.43 13.24L24.43 13.24Q24.38 13.57 24.25 13.82L24.25 13.82L24.25 13.82Q24.12 14.08 23.94 14.22L23.94 14.22L23.94 14.22Q23.76 14.37 23.46 14.46L23.46 14.46L23.46 14.46Q23.16 14.56 22.80 14.59L22.80 14.59L22.80 14.59Q22.44 14.62 21.90 14.62L21.90 14.62L21.90 14.62Q21.22 14.62 20.71 14.54L20.71 14.54L20.71 14.54Q20.21 14.46 19.85 14.35L19.85 14.35L19.85 14.35Q19.49 14.23 19.26 13.97L19.26 13.97L19.26 13.97Q19.02 13.71 18.89 13.47L18.89 13.47L18.89 13.47Q18.76 13.23 18.70 12.76L18.70 12.76L18.70 12.76Q18.63 12.30 18.62 11.92L18.62 11.92L18.62 11.92Q18.60 11.54 18.60 10.87L18.60 10.87L18.60 10.87Q18.60 9.93 18.62 9.40L18.62 9.40L18.62 9.40Q18.65 8.87 18.76 8.34L18.76 8.34L18.76 8.34Q18.87 7.81 19.05 7.57L19.05 7.57L19.05 7.57Q19.24 7.33 19.60 7.13L19.60 7.13L19.60 7.13Q19.96 6.92 20.45 6.87L20.45 6.87L20.45 6.87Q20.95 6.81 21.70 6.81L21.70 6.81L21.70 6.81Q22.23 6.81 22.61 6.84L22.61 6.84L22.61 6.84Q23.00 6.87 23.32 6.97L23.32 6.97L23.32 6.97Q23.64 7.06 23.85 7.18L23.85 7.18L23.85 7.18Q24.06 7.31 24.22 7.55L24.22 7.55L24.22 7.55Q24.38 7.79 24.46 8.04L24.46 8.04L24.46 8.04Q24.55 8.30 24.60 8.72L24.60 8.72L24.60 8.72Q24.66 9.15 24.67 9.58L24.67 9.58L24.67 9.58Q24.68 10.01 24.68 10.66ZM19.95 10.04L19.95 10.04L23.34 10.04L23.34 10.04Q23.32 9.17 23.27 8.44L23.27 8.44L23.27 8.44Q23.24 8.03 22.91 7.89L22.91 7.89L22.91 7.89Q22.58 7.75 21.70 7.75L21.70 7.75L21.70 7.75Q20.72 7.75 20.46 7.85L20.46 7.85L20.46 7.85Q20.34 7.89 20.26 7.97L20.26 7.97L20.26 7.97Q20.17 8.06 20.12 8.22L20.12 8.22L20.12 8.22Q20.06 8.37 20.03 8.51L20.03 8.51L20.03 8.51Q20.00 8.65 19.98 8.89L19.98 8.89L19.98 8.89Q19.97 9.13 19.96 9.27L19.96 9.27L19.96 9.27Q19.95 9.40 19.95 9.67L19.95 9.67L19.95 9.67Q19.95 9.95 19.95 10.04ZM32.44 10.36L32.44 14.52L31.09 14.52L31.09 9.98L31.09 9.98Q31.09 9.54 31.09 9.28L31.09 9.28L31.09 9.28Q31.08 9.02 31.06 8.75L31.06 8.75L31.06 8.75Q31.04 8.48 31.01 8.35L31.01 8.35L31.01 8.35Q30.98 8.22 30.91 8.08L30.91 8.08L30.91 8.08Q30.84 7.95 30.76 7.90L30.76 7.90L30.76 7.90Q30.69 7.85 30.54 7.81L30.54 7.81L30.54 7.81Q30.40 7.77 30.26 7.76L30.26 7.76L30.26 7.76Q30.11 7.75 29.87 7.75L29.87 7.75L29.87 7.75Q29.35 7.75 28.99 7.81L28.99 7.81L28.99 7.81Q28.62 7.87 28.39 7.97L28.39 7.97L28.39 7.97Q28.16 8.07 28.03 8.26L28.03 8.26L28.03 8.26Q27.90 8.44 27.86 8.66L27.86 8.66L27.86 8.66Q27.81 8.87 27.81 9.19L27.81 9.19L27.81 9.19Q27.81 9.37 27.83 9.81L27.83 9.81L27.83 9.81Q27.85 10.25 27.85 10.52L27.85 10.52L27.85 14.52L26.50 14.52L26.50 7.02L27.73 7.02L27.86 7.86L27.86 7.86Q28.04 7.30 28.65 7.05L28.65 7.05L28.65 7.05Q29.26 6.81 30.10 6.81L30.10 6.81L30.10 6.81Q30.50 6.81 30.80 6.86L30.80 6.86L30.80 6.86Q31.11 6.90 31.35 7.02L31.35 7.02L31.35 7.02Q31.59 7.13 31.76 7.27L31.76 7.27L31.76 7.27Q31.94 7.42 32.06 7.65L32.06 7.65L32.06 7.65Q32.18 7.89 32.25 8.13L32.25 8.13L32.25 8.13Q32.33 8.38 32.37 8.75L32.37 8.75L32.37 8.75Q32.41 9.12 32.42 9.48L32.42 9.48L32.42 9.48Q32.44 9.85 32.44 10.36L32.44 10.36ZM39.29 5.25L39.29 5.25L39.29 5.25Q38.90 5.22 38.32 5.22L38.32 5.22L38.32 5.22Q37.73 5.22 37.34 5.25L37.34 5.25L37.34 5.25Q36.95 5.28 36.66 5.37L36.66 5.37L36.66 5.37Q36.37 5.46 36.21 5.56L36.21 5.56L36.21 5.56Q36.05 5.67 35.95 5.90L35.95 5.90L35.95 5.90Q35.85 6.13 35.82 6.37L35.82 6.37L35.82 6.37Q35.79 6.61 35.78 7.02L35.78 7.02L35.78 7.02Q35.76 8.29 35.76 9.56L35.76 9.56L35.76 9.56Q35.76 11.49 35.86 12.20L35.86 12.20L35.86 12.20Q36.03 13.27 36.48 13.43L36.48 13.43L36.48 13.43Q36.83 13.63 38.32 13.63L38.32 13.63L38.32 13.63Q39.81 13.63 40.15 13.43L40.15 13.43L40.15 13.43Q40.28 13.38 40.38 13.28L40.38 13.28L40.38 13.28Q40.49 13.17 40.56 12.98L40.56 12.98L40.56 12.98Q40.63 12.80 40.69 12.61L40.69 12.61L40.69 12.61Q40.74 12.42 40.78 12.13L40.78 12.13L40.78 12.13Q40.81 11.83 40.83 11.60L40.83 11.60L40.83 11.60Q40.85 11.36 40.86 11.00L40.86 11.00L40.86 11.00Q40.87 10.63 40.87 10.39L40.87 10.39L40.87 10.39Q40.87 10.15 40.87 9.75L40.87 9.75L40.87 9.75Q40.87 8.37 40.85 7.02L40.85 7.02L40.85 7.02Q40.84 6.61 40.81 6.37L40.81 6.37L40.81 6.37Q40.78 6.13 40.68 5.90L40.68 5.90L40.68 5.90Q40.58 5.67 40.42 5.56L40.42 5.56L40.42 5.56Q40.26 5.46 39.97 5.37L39.97 5.37L39.97 5.37Q39.68 5.28 39.29 5.25ZM38.32 14.68L38.32 14.68L38.32 14.68Q37.72 14.68 37.26 14.66L37.26 14.66L37.26 14.66Q36.80 14.63 36.41 14.52L36.41 14.52L36.41 14.52Q36.02 14.42 35.74 14.33L35.74 14.33L35.74 14.33Q35.46 14.24 35.24 13.99L35.24 13.99L35.24 13.99Q35.02 13.74 34.88 13.56L34.88 13.56L34.88 13.56Q34.73 13.38 34.63 12.96L34.63 12.96L34.63 12.96Q34.53 12.54 34.48 12.24L34.48 12.24L34.48 12.24Q34.43 11.94 34.40 11.32L34.40 11.32L34.40 11.32Q34.37 10.70 34.37 10.25L34.37 10.25L34.37 10.25Q34.36 9.81 34.36 8.97L34.36 8.97L34.36 8.97Q34.36 7.96 34.42 7.29L34.42 7.29L34.42 7.29Q34.47 6.62 34.63 6.04L34.63 6.04L34.63 6.04Q34.79 5.47 35.06 5.14L35.06 5.14L35.06 5.14Q35.32 4.81 35.78 4.58L35.78 4.58L35.78 4.58Q36.23 4.34 36.84 4.26L36.84 4.26L36.84 4.26Q37.44 4.17 38.32 4.17L38.32 4.17L38.32 4.17Q39.14 4.17 39.73 4.25L39.73 4.25L39.73 4.25Q40.32 4.33 40.77 4.54L40.77 4.54L40.77 4.54Q41.23 4.75 41.50 5.06L41.50 5.06L41.50 5.06Q41.78 5.37 41.96 5.88L41.96 5.88L41.96 5.88Q42.14 6.38 42.20 7.01L42.20 7.01L42.20 7.01Q42.27 7.64 42.27 8.53L42.27 8.53L42.27 8.53Q42.27 8.61 42.27 8.76L42.27 8.76L42.27 8.76Q42.27 9.60 42.26 10.00L42.26 10.00L42.26 10.00Q42.26 10.39 42.24 11.03L42.24 11.03L42.24 11.03Q42.23 11.66 42.18 11.95L42.18 11.95L42.18 11.95Q42.14 12.23 42.07 12.66L42.07 12.66L42.07 12.66Q42 13.10 41.89 13.30L41.89 13.30L41.89 13.30Q41.77 13.50 41.61 13.75L41.61 13.75L41.61 13.75Q41.44 14.01 41.22 14.15L41.22 14.15L41.22 14.15Q41.00 14.29 40.70 14.40L40.70 14.40L41.84 16.18L40.89 16.97L39.37 14.65L39.37 14.65Q38.97 14.68 38.32 14.68ZM51.37 7.14L51.37 7.14L51.37 7.14Q51.37 8.44 50.87 9.07L50.87 9.07L50.87 9.07Q50.38 9.71 49.50 9.85L49.50 9.85L49.50 9.85Q50.81 10.12 51.06 11.52L51.06 11.52L51.58 14.52L50.10 14.52L50.10 14.52Q50.05 14.21 49.97 13.61L49.97 13.61L49.97 13.61Q49.90 13.01 49.84 12.60L49.84 12.60L49.84 12.60Q49.78 12.18 49.68 11.72L49.68 11.72L49.68 11.72Q49.57 11.25 49.41 10.94L49.41 10.94L49.41 10.94Q49.24 10.62 49.01 10.47L49.01 10.47L49.01 10.47Q48.64 10.32 47.80 10.32L47.80 10.32L45.68 10.32L45.68 14.52L44.30 14.52L44.30 4.33L47.41 4.33L47.41 4.33Q47.91 4.33 48.25 4.34L48.25 4.34L48.25 4.34Q48.60 4.35 48.98 4.39L48.98 4.39L48.98 4.39Q49.36 4.42 49.62 4.48L49.62 4.48L49.62 4.48Q49.88 4.55 50.15 4.65L50.15 4.65L50.15 4.65Q50.42 4.75 50.60 4.90L50.60 4.90L50.60 4.90Q50.77 5.05 50.93 5.26L50.93 5.26L50.93 5.26Q51.08 5.47 51.17 5.74L51.17 5.74L51.17 5.74Q51.26 6.01 51.31 6.36L51.31 6.36L51.31 6.36Q51.37 6.71 51.37 7.14ZM50.00 7.68L50.00 7.68L50.00 6.73L50.00 6.73Q50.00 6.47 49.99 6.32L49.99 6.32L49.99 6.32Q49.98 6.17 49.94 6.01L49.94 6.01L49.94 6.01Q49.90 5.84 49.81 5.75L49.81 5.75L49.81 5.75Q49.72 5.67 49.58 5.58L49.58 5.58L49.58 5.58Q49.44 5.50 49.22 5.46L49.22 5.46L49.22 5.46Q49 5.43 48.70 5.40L48.70 5.40L48.70 5.40Q48.41 5.38 47.99 5.38L47.99 5.38L45.68 5.38L45.68 9.23L48.07 9.23L48.07 9.23Q48.60 9.23 48.94 9.17L48.94 9.17L48.94 9.17Q49.28 9.12 49.50 9.02L49.50 9.02L49.50 9.02Q49.71 8.92 49.82 8.72L49.82 8.72L49.82 8.72Q49.93 8.52 49.96 8.29L49.96 8.29L49.96 8.29Q50.00 8.06 50.00 7.68Z"></path></g><defs data-v-423bf9ae=""><linearGradient data-v-423bf9ae="" gradientTransform="rotate(25)" id="24e9c95f-ce54-413c-b2bf-368b6bdb4db7" x1="0%" y1="0%" x2="100%" y2="0%"><stop data-v-423bf9ae="" offset="0%" style="stop-color: rgb(214, 65, 63); stop-opacity: 1;"></stop><stop data-v-423bf9ae="" offset="100%" style="stop-color: rgb(66, 133, 211); stop-opacity: 1;"></stop></linearGradient></defs><g data-v-423bf9ae="" id="84201aee-f9e2-4fd8-a5c7-151649453953" transform="matrix(1.078623284233941,0,0,1.078623284233941,-0.6031944032270999,-0.4274008682442272)" stroke="none" fill="url(#24e9c95f-ce54-413c-b2bf-368b6bdb4db7)"><path d="M28.628 21.086l4.41 13.719s5.879 8.818 6.859 9.799l1.345.96a69.62 69.62 0 0 1 1.301-5.911c.869-2.535 3.229-5.577 5.677-6.317 1.572-.323 3.039-.099 4.252.6.637.322 2.019 2.029 2.122 2.34l.49.489 1.959.98 2.45.979c.49 0 .49.49 0 .49l-4.409.49-.98.489c-.489.49-.489 1.47 0 2.45l1.96 4.409 3.43-2.449c.979-.98 6.859-9.799 6.859-9.799l4.409-13.719 5.39-18.617c.489-1.96 1.471-1.96 2.45-.49l5.88 9.799 2.449 6.859c.49.979 1.47 1.47 2.449 1.47l2.94-.49h1.47c.979.49.979 1.47.979 2.45L90.36 32.844c0 .979.49 1.96 1.47 2.449l5.39.98c.979.489 1.47.979.979 1.96L87.911 54.892c-.489.98 0 1.47.98 1.96l3.43.49c.979.489 1.47.979.489 1.96l-9.799 7.349c-1.47 1.47-1.47 2.939.49 3.43l.98.49c1.47.489 1.959 1.47.489 2.449l-2.939 1.47c-3.92 1.47-7.84 1.96-7.84 1.96l-7.839.979-6.859-.979 4.409 6.369c1.96 1.96 1.96 5.39-.489 6.859l-7.84 6.859c-2.939 1.959-7.348 1.959-10.288 0l-7.839-6.859c-2.45-1.47-2.939-4.409-.98-6.859 1.96-2.449 5.478-6.369 5.478-6.369l-8.907.979-7.839-.979-7.839-1.96-2.939-1.47c-1.47-.979-.98-1.96.49-2.449l.98-.49c1.959-.49 1.959-1.96.49-3.43l-9.799-7.349c-.98-.98-.49-1.471.49-1.96l3.429-.49c.98-.49 1.47-.979.98-1.96L1.192 38.234c-.49-.98 0-1.471.98-1.96l5.389-.98c.98-.489 1.47-1.47 1.47-2.449L4.622 22.066c0-.98.49-1.96 1.47-2.45h.98l2.939.49c.98 0 1.96-.49 2.45-1.47l2.45-6.859 5.879-9.799c.98-1.47 1.959-1.47 2.45.49l5.388 18.618z"></path></g><!----></svg>