<svg data-v-423bf9ae="" xmlns="http://www.w3.org/2000/svg" viewBox="0 0 273 90" class="iconLeft"><!----><!----><!----><g data-v-423bf9ae="" id="4d8db395-7dc8-4ab6-af95-7ed58d119271" fill="black" transform="matrix(4.991680342345265,0,0,4.991680342345265,72.75321210808468,15.648917586237669)"><path d="M6.15 1.46L4.56-0.13L2.56-0.13L0.98 1.46L0.98 8.86L2.55 10.54L4.56 10.54L6.15 8.86ZM4.02 9.28L3.09 9.28L2.24 8.37L2.24 1.97L3.08 1.13L4.03 1.13L4.87 1.97L4.87 8.37ZM11.45 0.01L8.16 0.01L8.16 10.50L9.44 10.50L9.44 7.06L11.47 7.06L13.08 5.36L13.08 1.61ZM9.44 5.78L9.44 1.29L10.93 1.29L11.79 2.14L11.79 4.86L10.92 5.78ZM16.23 4.68L16.23 1.29L19.25 1.29L19.25 0.01C17.56 0.01 16.65 0.01 14.95 0.01L14.95 10.50L19.45 10.50L19.45 9.23L16.23 9.23L16.23 5.95L18.76 5.95L18.76 4.68ZM20.87 10.50L22.15 10.50L22.15 5.46L21.99 2.25L22.04 2.25L22.95 5.35L24.58 10.50L25.94 10.50L25.94 0.04L24.67 0.04L24.67 3.72L24.91 7.71L24.86 7.71L23.79 3.79L22.60 0.04L20.87 0.04ZM32.06 10.01L33.17 8.83L33.17 1.51L31.54-0.10L29.50-0.10L27.90 1.51L27.90 8.83L29.50 10.54L30.97 10.54L31.79 11.89L32.79 11.23ZM31.00 9.27L30.03 9.27L29.18 8.33L29.18 2.03L30.03 1.18L31.00 1.18L31.86 2.03L31.86 8.33ZM34.44 10.50L35.73 10.50L36.13 7.77L38.32 7.77L38.72 10.50L40.01 10.50L38.46 0.01L35.99 0.01ZM38.14 6.50L36.32 6.50L37.09 1.29L37.35 1.29Z"></path></g><!----><g data-v-423bf9ae="" id="23a6ff4e-0ecb-4280-9969-9812c87229ed" transform="matrix(1.0238907672089497,0,0,1.0238907672089497,-22.34573445202765,-6.145733677696192)" stroke="none" fill="black"><path d="M50 6.1c-15.5 0-28.1 11.2-28.1 25v51.4l17 11.4V48.2l-5.3-1.3-2.6-7.1 14.7 3.5v18.9l4 3.1 4.3-3.1V43.4l15.4-3.6-2.7 7.1-6 1.4V94l17.5-11.4V31.1c-.1-13.8-12.7-25-28.2-25z"></path></g><!----></svg>